HIERARCHY
ROOT SimulationBone
{
	OFFSET 0.000000 0.000000 0.000000
	CHANNELS 6 Xposition Yposition Zposition Zrotation Yrotation Xrotation 
	JOINT Hips
	{
		OFFSET 0.000000 0.000000 0.000000
		CHANNELS 6 Xposition Yposition Zposition Zrotation Yrotation Xrotation 
		JOINT RightUpLeg
		{
			OFFSET 0.103458 1.857831 10.548505
			CHANNELS 3 Zrotation Yrotation Xrotation
			JOINT RightLeg
			{
				OFFSET 43.500000 -0.000031 0.000002
				CHANNELS 3 Zrotation Yrotation Xrotation
				JOINT RightFoot
				{
					OFFSET 42.372200 0.000023 0.000003
					CHANNELS 3 Zrotation Yrotation Xrotation
					JOINT RightToe
					{
						OFFSET 17.299997 -0.000001 -0.000010
						CHANNELS 3 Zrotation Yrotation Xrotation
						End Site
						{
							OFFSET 0.000000 0.000000 0.000000
						}
					}
				}
			}
		}
		JOINT LeftUpLeg
		{
			OFFSET 0.103457 1.857828 -10.548510
			CHANNELS 3 Zrotation Yrotation Xrotation
			JOINT LeftLeg
			{
				OFFSET 43.500046 -0.000015 0.000002
				CHANNELS 3 Zrotation Yrotation Xrotation
				JOINT LeftFoot
				{
					OFFSET 42.372261 -0.000008 0.000023
					CHANNELS 3 Zrotation Yrotation Xrotation
					JOINT LeftToe
					{
						OFFSET 17.299990 -0.000007 -0.000002
						CHANNELS 3 Zrotation Yrotation Xrotation
						End Site
						{
							OFFSET 0.000000 0.000000 0.000000
						}
					}
				}
			}
		}
		JOINT Spine
		{
			OFFSET 6.901967 -2.603726 -0.000001
			CHANNELS 3 Zrotation Yrotation Xrotation
			JOINT Spine1
			{
				OFFSET 12.588100 -0.000009 -0.000003
				CHANNELS 3 Zrotation Yrotation Xrotation
				JOINT Spine2
				{
					OFFSET 12.343202 0.000008 0.000008
					CHANNELS 3 Zrotation Yrotation Xrotation
					JOINT Neck
					{
						OFFSET 25.832897 -0.000015 -0.000004
						CHANNELS 3 Zrotation Yrotation Xrotation
						JOINT Head
						{
							OFFSET 11.766609 0.000013 -0.000006
							CHANNELS 3 Zrotation Yrotation Xrotation
							End Site
							{
								OFFSET 0.000000 0.000000 0.000000
							}
						}
					}
					JOINT RightShoulder
					{
						OFFSET 19.745911 -1.480373 6.000098
						CHANNELS 3 Zrotation Yrotation Xrotation
						JOINT RightArm
						{
							OFFSET 11.284123 -0.000007 -0.000032
							CHANNELS 3 Zrotation Yrotation Xrotation
							JOINT RightForeArm
							{
								OFFSET 33.000050 0.000005 0.000031
								CHANNELS 3 Zrotation Yrotation Xrotation
								JOINT RightHand
								{
									OFFSET 25.200008 0.000017 0.000013
									CHANNELS 3 Zrotation Yrotation Xrotation
									End Site
									{
										OFFSET 0.000000 0.000000 0.000000
									}
								}
							}
						}
					}
					JOINT LeftShoulder
					{
						OFFSET 19.746092 -1.480379 -6.000077
						CHANNELS 3 Zrotation Yrotation Xrotation
						JOINT LeftArm
						{
							OFFSET 11.284136 -0.000017 -0.000017
							CHANNELS 3 Zrotation Yrotation Xrotation
							JOINT LeftForeArm
							{
								OFFSET 33.000099 0.000019 0.000015
								CHANNELS 3 Zrotation Yrotation Xrotation
								JOINT LeftHand
								{
									OFFSET 25.199780 0.000140 0.000408
									CHANNELS 3 Zrotation Yrotation Xrotation
									End Site
									{
										OFFSET 0.000000 0.000000 0.000000
									}
								}
							}
						}
					}
				}
			}
		}
	}
}
MOTION
Frames: 11
Frame Time: 0.033333
80.232398 0.000000 233.240927 0.000000 97.735632 0.000000 -1.713983 86.859360 -0.806704 90.642808 -1.074164 176.197624 -165.505551 -0.763194 170.350368 -13.006678 -4.517438 -13.411031 91.285424 7.879983 -9.829739 21.454558 0.003106 0.000018 142.148681 10.311095 -178.171249 -34.787741 1.819399 8.481124 67.582495 -3.378202 8.150096 21.454553 -0.003092 0.000001 7.990503 0.272587 -2.576525 5.953141 0.676790 -5.135715 5.636427 0.645686 -5.139703 -1.509909 10.695028 2.360601 -8.665633 -5.526864 5.984202 -176.361987 -74.958895 -5.157964 -27.788696 46.893927 -3.148633 -74.915612 -15.381458 2.761778 -2.467860 -8.335753 30.206539 -144.877642 73.555380 37.464800 23.166832 -47.060919 -39.449725 -26.371403 15.352530 -1.186814 15.651160 10.160109 26.620823 
81.476261 0.000000 230.503157 0.000000 95.282671 0.000000 -2.215255 86.042191 -1.552037 90.527138 -1.721512 177.458391 -163.746600 -0.359897 168.749386 -12.731712 -4.506866 -12.922152 91.856304 7.466690 -10.795507 21.454558 0.003109 0.000020 140.042510 11.299494 -178.495574 -34.628786 1.517866 8.473755 68.669247 -3.382207 8.292844 21.454551 -0.003094 0.000000 8.314242 0.406488 -2.657989 6.593679 0.963318 -5.288730 6.277009 0.931242 -5.294417 -1.236229 9.744972 3.311155 -9.115415 -5.391231 6.732546 -174.879590 -74.879985 -6.674470 -27.464329 47.118292 -5.954626 -77.870085 -13.824876 2.779976 -2.309185 -8.262573 30.620851 -143.586996 73.661903 38.781483 28.295380 -47.536351 -44.851762 -26.090452 15.628480 -1.199722 14.613980 8.365556 26.477046 
82.700873 0.000000 227.671010 0.000000 92.951412 0.000000 -2.631537 85.113998 -2.046022 90.320963 -2.286578 178.457525 -161.968989 -0.184491 167.345140 -12.705030 -4.620627 -12.397861 92.276655 6.996372 -12.018806 21.454558 0.003117 0.000018 137.760845 11.484407 -177.446826 -36.523648 0.549799 8.421850 69.233454 -3.153277 8.916968 21.454551 -0.003095 0.000000 8.573462 0.470776 -2.765052 7.107820 1.110121 -5.496231 6.791264 1.076807 -5.502804 -1.122201 9.556684 4.187440 -8.794305 -5.919395 7.708169 -173.943895 -75.250393 -7.635124 -26.040113 47.977551 -7.067697 -79.476389 -12.818890 2.779221 -2.920647 -8.455298 29.306091 -143.249243 73.710206 39.125113 31.732352 -48.047061 -49.926511 -25.413636 15.238990 -1.163902 12.168126 7.953933 23.056055 
83.907600 0.000000 224.748844 0.000000 90.753268 0.000000 -2.930621 84.080383 -2.250923 89.931818 -2.576524 179.517630 -160.502410 -0.457901 166.420906 -13.334499 -4.577102 -11.819840 92.615835 6.409776 -13.909560 21.454557 0.003100 0.000018 135.803681 11.121315 -176.858145 -39.930201 0.248948 8.050010 70.160844 -3.349935 7.676791 21.454551 -0.003099 -0.000002 8.694108 0.546109 -2.930283 7.343424 1.276706 -5.820338 7.027032 1.241447 -5.827920 -0.753495 9.764530 4.743627 -8.412698 -7.490682 8.699642 -174.019819 -75.158131 -7.556823 -23.225672 48.841720 -5.898194 -79.782060 -12.657748 2.781249 -3.470271 -8.422825 28.803669 -143.461389 73.845109 38.902620 33.849229 -48.564172 -51.800800 -25.255731 14.126248 -1.090412 8.945789 6.749748 11.352242 
85.097805 0.000000 221.741017 0.000000 88.696191 0.000000 -2.959182 83.124283 -2.150729 89.588792 -2.642496 -179.376849 -159.392887 -1.134292 165.236865 -15.117620 -4.077976 -11.052390 91.924798 5.536522 -16.103861 21.454560 0.003114 0.000017 135.542454 10.396292 -176.672378 -42.896204 0.423190 7.828549 70.789761 -3.090639 8.093469 21.454551 -0.003089 0.000001 8.679643 0.639283 -3.098290 7.307561 1.472530 -6.150516 6.991350 1.435302 -6.159260 0.219989 9.247473 5.404120 -8.193130 -7.728819 9.253148 -174.342587 -74.569601 -7.221667 -19.525190 49.431015 -1.528647 -77.829678 -13.686581 2.768470 -3.208935 -8.384010 27.714331 -143.354865 73.858114 39.011090 34.283397 -49.499453 -54.075759 -25.030316 14.209509 -1.092193 8.028834 3.885795 -1.214335 
86.272854 0.000000 218.651889 0.000000 86.785538 0.000000 -3.015936 82.818024 -1.809781 88.811794 -1.950975 -177.894681 -159.119160 -2.763313 163.185322 -17.097867 -3.073990 -9.811581 88.969511 4.023629 -17.973175 21.454557 0.003103 0.000017 136.701305 8.925088 -175.344330 -43.569831 0.354139 8.113741 68.737391 -4.008274 5.614640 21.454551 -0.003091 0.000001 8.528053 0.884615 -3.176999 6.990481 1.959042 -6.295723 6.674280 1.920912 -6.307375 0.294280 8.170201 5.549119 -7.449590 -7.159721 8.992615 -173.530600 -73.971714 -8.049112 -16.714212 50.375517 5.571744 -72.492329 -16.122837 2.710344 -2.227142 -9.559564 25.597900 -142.785911 73.258990 39.617699 32.938516 -50.266343 -55.532880 -25.305916 13.777829 -1.068936 5.372191 2.919583 -13.442062 
87.434110 0.000000 215.485819 0.000000 85.023551 0.000000 -3.049632 83.016380 -1.378168 88.382124 -0.766369 -176.689054 -159.876164 -4.584395 162.063710 -20.703652 -1.143066 -9.453393 83.229953 2.579073 -19.609777 21.454555 0.003111 0.000018 137.917843 7.051704 -173.378492 -44.760149 0.154893 8.094029 69.650219 -5.184940 2.082873 21.454551 -0.003092 0.000001 8.430749 1.158266 -3.040606 6.784867 2.492301 -6.009584 6.468368 2.455905 -6.024455 0.429446 7.932156 4.998837 -7.608495 -7.618469 8.524230 -174.252824 -73.740778 -7.306825 -14.786431 51.976695 13.035331 -64.063910 -18.980867 2.562315 -0.459554 -9.152439 22.782735 -144.791117 72.403304 37.597524 29.871754 -51.391856 -56.710518 -25.497586 13.352831 -1.044766 4.750635 2.161319 -21.221736 
88.582938 0.000000 212.247165 0.000000 83.410284 0.000000 -2.895298 83.289886 -0.857731 88.880883 0.535711 -175.977456 -162.521291 -6.663696 161.978442 -29.377620 1.438907 -10.550864 76.586570 2.442189 -18.835801 21.454558 0.003118 0.000015 139.930810 5.781494 -171.482390 -46.679285 1.050365 7.297234 73.001875 -4.848160 1.374163 21.454550 -0.003095 0.000001 8.549534 1.447264 -2.720938 7.017271 3.056411 -5.351113 6.700214 3.023966 -5.369418 0.607924 7.843111 4.275479 -7.457498 -7.738335 7.785600 -176.804993 -73.731619 -4.689546 -14.328000 54.166986 19.629161 -52.513541 -21.068521 2.271944 1.402288 -7.125593 15.947240 -149.034304 72.166645 33.252902 25.122312 -52.994738 -57.249628 -25.489221 13.400232 -1.047669 3.268752 1.357922 -27.437399 
89.720704 0.000000 208.940285 0.000000 81.943851 0.000000 -2.751918 84.232117 -0.362829 89.023838 1.717879 -175.259672 -167.725158 -8.423404 164.279204 -40.658036 3.359850 -12.766194 70.115997 4.412710 -14.447517 21.454551 0.003102 0.000018 143.243287 4.820807 -167.810112 -45.872350 1.321073 5.556104 75.468031 -4.066035 -0.247180 21.454553 -0.003086 0.000001 8.478630 1.638120 -2.398341 6.877387 3.415442 -4.697313 6.559853 3.386917 -4.717828 2.000347 7.731641 3.686302 -7.689009 -6.819225 6.848457 -178.218897 -73.970894 -3.243277 -15.050966 56.675335 24.025117 -38.861782 -19.378852 1.740773 4.205205 -6.481172 8.881876 -153.852566 72.254112 28.303104 18.461498 -55.153258 -54.577894 -25.600223 12.794566 -1.010584 3.336015 0.145429 -33.608475 
90.848771 0.000000 205.569539 0.000000 80.620831 0.000000 -2.721495 85.463913 -0.026676 89.169481 2.396632 -175.504559 -174.817940 -9.179995 166.860005 -53.548587 4.502091 -13.682871 66.713572 6.623801 -8.820913 21.454563 0.003106 0.000018 146.914022 2.842291 -168.176073 -43.565088 2.173730 5.322701 76.960939 -4.101411 -1.030904 21.454551 -0.003091 0.000002 8.368004 1.634354 -1.925346 6.670648 3.376602 -3.755139 6.352718 3.353744 -3.775447 3.645739 7.376678 3.171034 -7.648000 -6.563635 6.097293 -176.865194 -73.791827 -4.628628 -14.998955 59.280571 25.026539 -27.788881 -15.953121 1.275430 6.029199 -4.634273 6.986227 -157.381697 72.268681 24.677294 8.410165 -57.157342 -49.836035 -25.439402 12.680219 -1.000690 2.296799 0.460810 -35.962449 
91.968503 0.000000 202.139286 0.000000 79.436620 0.000000 -2.596417 87.089546 0.117837 89.538545 2.169796 -176.921484 178.738674 -8.904403 168.979331 -63.959114 3.426764 -10.625270 71.429101 5.536867 -6.180903 21.454565 0.003114 0.000013 151.556556 0.860897 -169.858513 -39.614677 2.256631 5.070375 77.533056 -4.052174 -1.572152 21.454550 -0.003098 0.000001 8.312780 1.420655 -1.286930 6.583164 2.911980 -2.491988 6.264942 2.896739 -2.509519 4.896879 5.921760 2.739574 -7.126835 -5.925192 5.182728 -175.049183 -73.065846 -6.483750 -10.591089 61.453391 25.410853 -22.451460 -14.217057 1.080162 6.444130 -1.860847 12.771209 -159.075051 73.168518 22.922607 -2.665011 -59.624888 -41.603936 -25.809792 13.774011 -1.076752 2.368463 1.952224 -38.177264 
